<svg width="33" height="32" viewBox="0 0 33 32" fill="none" xmlns="http://www.w3.org/2000/svg">
  <path d="M14.7762 9.30035C17.3838 9.30035 19.325 10.0971 20.5998 11.6906C21.9036 13.2552 22.5555 15.6309 22.5555 18.8179V31.9862H14.6893V19.1657C14.6893 17.8039 14.4576 16.8333 13.994 16.2538C13.5304 15.6454 12.8061 15.3412 11.821 15.3412C10.6331 15.3412 9.67699 15.7469 8.95266 16.5581C8.22834 17.3403 7.86618 18.3834 7.86618 19.6871V31.9862H0V0H7.86618V12.6033C9.57559 10.4013 11.879 9.30035 14.7762 9.30035Z" fill="#171822"/>
  <path d="M26.1843 25.7916H32.3928V32.0001H26.1843V25.7916Z" fill="#00C49A"/>
</svg>
